# xmcd
# 
# Track frame offsets:
#     150
#     14220
#     23021
#     29990
#     35183
#     46672
#     54424
#     68589
#     80006
#     87500
#     100608
#     112019
#     121933
# 
# Disc length: 1782
# 
# Revision: 0
# Processed by: cddbd v1.5.2PL0 Copyright (c) Steve Scherf et al.
# Submitted via: fre:ac v1.0.17
# 
DISCID=ae06f40d
DTITLE=Thomas - I'm Just Buskin'
DYEAR=0
DGENRE=Blues
TTITLE0=I'm Just Buskin'
TTITLE1=Walking' The Floor
TTITLE2=Blue Moon
TTITLE3=Little Red Rooster
TTITLE4=Don't You Lie To Me
TTITLE5=Caledonia
TTITLE6=Kid's Stuff
TTITLE7=Island In The Sun
TTITLE8=Coconut Woman
TTITLE9=Moonlight Lady
TTITLE10=Biyau Mai Wasa
TTITLE11=Pennies From Heaven
TTITLE12=Wonderful World
EXTD=
EXTT0=
EXTT1=
EXTT2=
EXTT3=
EXTT4=
EXTT5=
EXTT6=
EXTT7=
EXTT8=
EXTT9=
EXTT10=
EXTT11=
EXTT12=
PLAYORDER=
